<?xml version="1.0" encoding="utf-8"?>
<!-- Generator: Adobe Illustrator 27.0.0, SVG Export Plug-In . SVG Version: 6.00 Build 0)  -->
<svg version="1.1" id="Layer_1" xmlns="http://www.w3.org/2000/svg" xmlns:xlink="http://www.w3.org/1999/xlink" x="0px" y="0px"
	 viewBox="0 0 490.5 68.8" style="enable-background:new 0 0 490.5 68.8;" xml:space="preserve">
<style type="text/css">
	.st0{fill:url(#SVGID_1_);}
	.st1{opacity:0.7;fill:url(#SVGID_00000093884423542547497570000016045779186018858412_);}
	.st2{fill:url(#SVGID_00000109028364936687572690000017895463635621254059_);}
	.st3{fill:#4D362A;}
	.st4{fill:#F34644;}
	.st5{fill:#7EA332;}
	.st6{fill:#3D4FF9;}
	.st7{fill:#F7C140;}
	.st8{fill:#F7F7F7;}
	.st9{fill:#FEA801;}
	.st10{fill:#FFFFFF;}
	.st11{font-family:'BasementGrotesque-Black';}
	.st12{font-size:24px;}
</style>
<g>
	<linearGradient id="SVGID_1_" gradientUnits="userSpaceOnUse" x1="245.25" y1="62.6297" x2="245.25" y2="8.5626">
		<stop  offset="0" style="stop-color:#000000"/>
		<stop  offset="0.2194" style="stop-color:#060606"/>
		<stop  offset="0.512" style="stop-color:#171717"/>
		<stop  offset="0.8445" style="stop-color:#323232"/>
		<stop  offset="1" style="stop-color:#424242"/>
	</linearGradient>
	<polygon class="st0" points="385.5,7.8 105,7.8 88.9,35.6 105,63.5 385.5,63.5 401.6,35.6 	"/>
	
		<linearGradient id="SVGID_00000039812133214573147150000001563360742645119895_" gradientUnits="userSpaceOnUse" x1="245.25" y1="6.5681" x2="245.25" y2="159.0358">
		<stop  offset="0" style="stop-color:#000000"/>
		<stop  offset="1" style="stop-color:#BBBBBB"/>
	</linearGradient>
	<polygon style="opacity:0.7;fill:url(#SVGID_00000039812133214573147150000001563360742645119895_);" points="385.5,7.8 105,7.8 
		88.9,35.6 401.6,35.6 	"/>
	<g>
		
			<linearGradient id="SVGID_00000155109227771886525010000006749717819782197425_" gradientUnits="userSpaceOnUse" x1="143.3309" y1="0.3595" x2="143.3309" y2="135.7646">
			<stop  offset="0" style="stop-color:#FCD702"/>
			<stop  offset="0.3259" style="stop-color:#FDB601"/>
			<stop  offset="0.7688" style="stop-color:#FE8F00"/>
			<stop  offset="1" style="stop-color:#FF8000"/>
		</linearGradient>
		<polygon style="fill:url(#SVGID_00000155109227771886525010000006749717819782197425_);" points="162.8,0.7 123.9,0.7 104.4,34.4 
			123.9,68.1 162.8,68.1 182.3,34.4 		"/>
		<g>
			<g>
				<path class="st3" d="M125.3,44.3c-3.5,0.7-6.8,0.1-9.5-2.1c-0.1-0.1-0.3-0.2-0.3-0.4c0.3-4.1,0.6-8.1,0.9-12.2
					c0.1-1,1-1.5,1.8-2.1c2.6-1.9,6.1-1.8,7.9,0.2c1.2,1.3,1.6,2.8,1,4.5c0,0.1-0.2,0.2,0,0.3c0.1,0,0.2,0.1,0.2,0.1
					c0.1-0.1,0.1-0.2,0.1-0.3c0.2-2.1,0.4-4.1,0.6-6.2c0-0.3,0.1-0.4,0.4-0.4c0.7,0.1,1.3,0.1,2,0.1c0.5,0,1,0.1,1.5,0.1
					c0.7,0.1,1.5,0,2.2,0.2c0,0.7,0,1.3,0,2.2c0.2-0.8,0.3-1.4,0.4-2c0.1-0.5,0.2-0.9,1-0.8c1,0.2,2,0.1,3,0.2
					c0.6-0.1,0.9,0.2,1.1,0.7c0.3,0.6,0.5,1.3,1.1,1.9c-0.1,0.3,0.2,0.6,0.3,0.8c0.7,1.4,1.5,2.9,2.3,4.4c0.5-2.3,0.9-4.4,1.3-6.6
					c1.5,0.2,3.1,0.4,4.6,0.7c1.2,0.3,2.3-0.1,3.3-0.5c2-0.2,3.9,0.2,5.6,1.2c0.1,0.1,0.2,0,0.4,0c3.3-2.4,8.4-1.5,10.7,2.5
					c2.3,4,2.3,8.1-0.2,11.9c-1.8,2.7-4.8,3-7.9,2.5c-0.1,0-0.2,0-0.3,0c-0.3-0.1-0.7-0.2-1-0.3c-0.4-0.1-0.9-0.5-1.3-0.4
					c-0.7,0.1-1.4,0.5-2.1,0.8c-0.5,0.1-1.1,0.2-1.6,0.2c-0.9-0.1-1.3,0.2-1.3,1.1c0,0.2-0.2,0.6,0.4,0.4c0.1-0.1,0.2,0.1,0.2,0.2
					c0,0.1,0,0.2-0.1,0.2c-0.9,0-0.6,0.7-0.7,1.2c-0.1,0.2-0.1,0.4-0.4,0.4c-0.3,0,0-0.3-0.1-0.4c-0.2-0.3,0.6-0.9-0.4-0.8
					c0,0-0.1-0.1-0.1-0.2c0-0.1,0.1-0.1,0.2-0.2c0.4-0.1,0.8-1.5,0.6-1.8c0,0-0.1-0.1-0.2-0.1c-0.5,0.1-1,0.1-1.5-0.2
					c-0.8-0.4-1.7-0.6-2.5-1.1c-0.2-0.2-0.5-0.3-0.7-0.5c-0.3-0.3-0.6-0.5-0.8-0.8c-0.2-0.2-0.2-0.2-0.3,0.1
					c-0.1,0.4-0.1,0.8-0.2,1.2c-0.1,0.7-0.6,0.8-1.3,0.8c-1.1,0-2.1,0-3.2,0.1c-0.3,0-0.4-0.1-0.6-0.3c-0.2-0.5-0.5-0.9-0.7-1.3
					c-0.8-1.6-1.6-3.3-2.5-5.1c-0.1,1.9-0.2,3.6-0.4,5.3c0,0.3,0.1,0.6-0.2,0.9c-1.3-0.4-2.5-0.8-3.8-0.9c-0.3-0.2-0.4,0.1-0.7,0.1
					c-1.4,0-2.8,0-4.2,0c-1.2,0-2.4-0.2-3.5,0.5C125.9,44.1,125.6,44.2,125.3,44.3z M133.7,33.8C133.7,33.8,133.7,33.8,133.7,33.8
					c-0.1-2.3-0.1-4.6-0.1-6.9c0-0.2,0-0.4-0.3-0.4c-1.4-0.1-2.8-0.1-4.2-0.2c-0.3,0-0.4,0.1-0.4,0.3c-0.2,1.9-0.4,3.9-0.6,5.8
					c-0.1,0.9-0.2,1.3-1.1,0.6c-0.1-0.1-0.3-0.1-0.5-0.2c-0.3-0.1-0.3-0.1-0.2-0.4c0.9-1.7,0.4-3.9-1.3-5c-2.1-1.5-5.4-0.9-7.5,1.3
					c-0.2,0.2-0.5,0.4-0.5,0.7c-0.1,1-0.3,2-0.3,3c-0.1,2.9-0.4,5.8-0.6,8.7c0,0.3,0.1,0.5,0.3,0.7c2.3,1.7,4.9,2.4,7.7,1.8
					c2.1-0.4,4.2-1,6.4-0.8c0.9,0.1,2,0.3,2.7-0.1c1-0.5,1.7,0.2,2.5,0.2c0.4,0,0.8,0.1,1.1,0.3c1,0.4,1.1,0,1.1-0.8
					c0.1-2.1,0.3-4.2,0.4-6.5c1.2,2.4,2.4,4.6,3.5,6.8c0.5,1.1,1.1,1.8,2.6,1.5c0.5-0.1,1-0.1,1.5,0c0.4,0,0.5-0.1,0.6-0.5
					c0.2-0.9,0.4-1.7,0.6-2.7c0.1,0.1,0.1,0.1,0.1,0.1c2.3,3.4,6.7,4.5,10.6,2.7c0.6-0.3,1.1-0.4,1.9,0c3.6,1.7,7.7,0.7,9.3-2.2
					c1.9-3.5,2-7.1-0.1-10.6c-2.3-4-6.2-4.7-10.3-2.2c-0.2,0.1-0.3,0-0.4-0.1c-1.5-1-3.1-1.5-5-1.3c-1.3,0.1-2.4,0.6-3.6,1.4
					c0.6-0.8,0.1-0.8-0.4-0.9c-1.2-0.2-2.3-0.3-3.4-0.5c-0.6-0.1-0.6,0.1-0.7,0.5c-0.4,2.4-0.9,4.7-1.4,7.2
					c-0.1-0.2-0.1-0.2-0.2-0.3c-1.2-2.2-2.4-4.4-3.4-6.7c-0.7-1.5-1.4-2.3-3.3-2.2c-1.1,0-1.7,0.1-1.7,1.3c0,0.5-0.2,1-0.3,1.5
					C134.5,30.5,134.1,32.2,133.7,33.8z"/>
				<path class="st4" d="M152.8,27.1c-1.1,0.3-2.1,0.7-3.3,0.5c-1.5-0.3-3.1-0.5-4.6-0.7c-0.7-0.5-1.1-1.2-1.7-1.8
					c0.1-0.2,0.1-0.3,0.1-0.5c0.1-1.4,0-2.7-0.7-4c1-3.3,4.1-4.8,6.9-4.6c2.7,0.1,5.2,2,5.9,4.4C156.1,23,155,25.8,152.8,27.1z
					 M152.9,24.4L152.9,24.4c0,0,0.1-0.1,0.1-0.2l0,0c0-0.1,0.1-0.1,0.1-0.2l0,0c0-0.1,0.1-0.1,0.1-0.2l0,0c0.6-0.3,0.8-1.9,0.3-2.4
					c-0.7-2-3-3.2-5.4-2c0,0-0.1,0-0.1-0.1c0.2-0.5,0.4-0.9,0.6-1.4c0.2-0.7-0.2-1.1-1-1c-2.1,0.1-4.4,2.5-4.3,4.4
					c0,0.5,0.3,0.7,0.8,0.6c0.9-0.1,1.6-0.6,2.3-1.1c0.1-0.1,0.2-0.1,0.3-0.1c0,0.1,0,0.2,0,0.2c-0.4,1-0.3,2,0.2,2.9
					c0,0,0,0.1,0.1,0.1l0,0c0,0.1,0,0.3,0.2,0.3l0,0c0,0.1,0,0.2,0.2,0.2l0,0c0,0.1,0.1,0.2,0.2,0.2l0,0c0.4,1.1,3.2,1.4,4.3,0.5
					l0,0c0.3,0,0.4-0.1,0.4-0.3l0,0c0.2,0,0.3,0,0.3-0.2c0.1-0.1,0.1-0.1,0.2-0.2C152.8,24.5,152.8,24.4,152.9,24.4z M145.5,23.5
					c0-0.5-0.3-0.7-0.8-0.7c-0.5,0-0.9,0.3-0.9,0.8c0,0.5,0.3,0.8,0.8,0.8C145.1,24.3,145.4,24,145.5,23.5z"/>
				<path class="st5" d="M142.6,20.6c0.7,1.2,0.8,2.6,0.7,4c0,0.2-0.1,0.3-0.2,0.5c-0.3,1.3-1,2.4-2.2,3.2c-0.6-0.5-0.7-1.2-1.1-1.9
					c-0.3-0.5-0.5-0.8-1.1-0.7c0,0,0-0.1,0-0.1c1.1-1.2,1.4-2.5,0.6-3.9c-0.8-1.4-2.1-1.9-3.8-1.7c-0.3,0-0.3-0.1-0.3-0.3
					c-0.2-0.9-0.7-1.1-1.6-0.6c-1.9,1-2.7,2.6-2.6,4.6c0.1,1,0.5,1.3,1.5,0.8c0.1-0.1,0.4-0.1,0.4-0.1c0.1,0.2,0.3,0.4,0.3,0.7
					c0,0.2-0.3,0.1-0.4,0.1c-0.4,0.1-0.6,0.3-0.6,0.7c-0.5,0-1-0.1-1.5-0.1c-0.4-1.4-0.6-2.7-0.1-4.1c0.9-2.3,2.6-3.8,5.3-4.2
					C138.7,17.2,141,18.3,142.6,20.6z"/>
				<path class="st4" d="M142.7,45c1.1,0,2.1-0.1,3.2-0.1c0.7,0,1.1-0.1,1.3-0.8c0.3,0.2,0.6,0.4,1,0.6c0.2,0.2,0.4,0.5,0.6,0.7
					c0.6,0.7,1,1.6,1.2,2.5c0.2,0.9,0.1,1.8-0.1,2.7c-1.3,4.1-6.2,5.9-10,3.5c-0.1-0.1-0.2-0.2-0.3-0.3c1.2-0.4,2-1.2,2.9-2
					c0.1-0.1,0.1-0.2-0.1-0.4c-0.7-0.5-1.2-1-1.5-1.8c-0.1-0.4-0.2-0.3-0.5-0.1c0.2-0.4,0.4-0.8,0.6-1.2c0.2,1.9,1.4,3.1,3.2,3.3
					c1.6,0.2,3.2-0.7,3.7-2.1c0.6-1.4,0.1-3.1-1.3-3.9c-0.9-0.5-1.8-0.7-2.9-0.5c-1,0.2-1.8,0.8-2.4,1.7c0-0.4,0-0.7,0-1
					C141.8,45.7,142.3,45.4,142.7,45z"/>
				<path class="st6" d="M125.3,44.3c0.3-0.1,0.6-0.1,0.8-0.2c0.3,0.8,0.9,0.9,2,0.4c0.2-0.1,0.4-0.1,0.6-0.2c0,0.2-0.1,0.4-0.1,0.6
					c-0.4,1.2-0.2,2.3,0.7,3.3c0.9,0.9,2,1.3,3.3,1.1c2.6-0.4,4-3.4,1.9-5.6c1.3,0.1,2.6,0.5,3.8,0.9c0,0.2,0,0.4,0,0.6
					c-1,1.2-1.6,2.5-1.7,4.1c-1.7,2-4.9,2.6-7.7,1.5C126.5,49.6,124.9,46.8,125.3,44.3z M127.4,45.4c-0.5,0-0.9,0.3-0.9,0.8
					c0,0.5,0.3,0.8,0.8,0.8c0.6,0,0.9-0.3,0.9-0.8C128.2,45.7,127.9,45.4,127.4,45.4z"/>
				<path class="st7" d="M149.8,50.7c0.2-0.9,0.3-1.8,0.1-2.7c0.5,0.1,0.6,0.4,0.5,0.8c-0.2,0.6,0.2,1.3,0.7,1.1
					c0.6-0.2,1.1,0.1,1.7,0.2c0.8,0.2,1.5,0.1,2.3-0.2c1.9-0.8,2.4-2.4,1.7-4.6c0.7-0.3,1.4-0.7,2.1-0.8c0.4-0.1,0.8,0.3,1.3,0.4
					c0.3,0.1,0.7,0.2,1,0.3c0.2,2-0.2,3.8-1.8,5.3c-2.5,2.3-6.2,2.5-8.9,0.5C150.2,50.8,150,50.6,149.8,50.7z"/>
				<path class="st7" d="M140.3,49.7c0.2-0.1,0.3-0.2,0.5,0.1c0.2,0.8,0.8,1.3,1.5,1.8c0.2,0.1,0.2,0.2,0.1,0.4
					c-0.9,0.8-1.7,1.6-2.9,2c-1.7-1.1-2.5-2.7-2.6-4.6c0,0,0,0,0,0c0-0.1,0-0.1,0-0.2c0.1-0.4,0.1-0.7,0.2-1.1
					c0.2-1.1,0.8-2,1.5-2.9c0.8-0.9,1.7-1.5,2.9-1.7c0.2,0.4,0.5,0.9,0.7,1.3c0.1,0.2,0.3,0.4,0.6,0.3c-0.5,0.3-0.9,0.7-1.4,1
					c-0.4-1.1-0.8-1.4-1.6-0.9c-1.8,1-2.7,3.8-1.8,5.6c0.2,0.4,0.6,0.5,1,0.3C139.6,50.7,139.9,50.2,140.3,49.7z M140.9,52.2
					c0-0.6-0.3-0.8-0.8-0.8c-0.5,0-0.9,0.3-0.9,0.8c0,0.5,0.3,0.8,0.9,0.8C140.6,52.9,140.9,52.6,140.9,52.2z"/>
				<path class="st5" d="M138.5,45.1c-0.7,0.9-1.3,1.8-1.5,2.9c-0.1,0.4-0.1,0.7-0.2,1.1c0,0-0.1,0-0.1,0c0-1.5,0.6-2.9,1.7-4.1
					C138.4,45,138.5,45.1,138.5,45.1z"/>
				<path class="st5" d="M136.9,49.3C136.9,49.3,136.9,49.3,136.9,49.3C136.9,49.3,136.9,49.3,136.9,49.3z"/>
				<path class="st8" d="M133.7,33.8c0.4-1.7,0.7-3.3,1.1-5c0.1-0.5,0.3-1,0.3-1.5c0-1.1,0.6-1.2,1.7-1.3c1.9-0.1,2.7,0.8,3.3,2.2
					c1,2.3,2.3,4.5,3.4,6.7c0,0.1,0.1,0.1,0.2,0.3c0.5-2.4,1-4.8,1.4-7.2c0.1-0.4,0.2-0.6,0.7-0.5c1.1,0.2,2.3,0.4,3.4,0.5
					c0.5,0.1,0.9,0.1,0.4,0.9c1.3-0.8,2.4-1.3,3.6-1.4c1.8-0.1,3.5,0.4,5,1.3c0.1,0.1,0.2,0.2,0.4,0.1c4-2.6,7.9-1.8,10.3,2.2
					c2.1,3.5,2,7.1,0.1,10.6c-1.6,3-5.7,3.9-9.3,2.2c-0.7-0.4-1.3-0.2-1.9,0c-4,1.8-8.3,0.7-10.6-2.7c0,0-0.1-0.1-0.1-0.1
					c-0.2,0.9-0.4,1.8-0.6,2.7c-0.1,0.3-0.2,0.5-0.6,0.5c-0.5,0-1-0.1-1.5,0c-1.4,0.3-2-0.4-2.6-1.5c-1-2.3-2.3-4.5-3.5-6.8
					c-0.2,2.3-0.3,4.4-0.4,6.5c0,0.8-0.2,1.2-1.1,0.8c-0.3-0.1-0.7-0.3-1.1-0.3c-0.8,0-1.5-0.7-2.5-0.2c-0.7,0.4-1.8,0.1-2.7,0.1
					c-2.2-0.2-4.3,0.4-6.4,0.8c-2.8,0.5-5.4-0.2-7.7-1.8c-0.2-0.2-0.3-0.4-0.3-0.7c0.2-2.9,0.5-5.8,0.6-8.7c0-1,0.2-2,0.3-3
					c0-0.3,0.3-0.5,0.5-0.7c2.1-2.2,5.4-2.8,7.5-1.3c1.7,1.1,2.2,3.3,1.3,5c-0.1,0.3-0.1,0.4,0.2,0.4c0.2,0,0.4,0.1,0.5,0.2
					c1,0.7,1.1,0.2,1.1-0.6c0.1-1.9,0.4-3.9,0.6-5.8c0-0.3,0.1-0.4,0.4-0.3c1.4,0.1,2.8,0.2,4.2,0.2c0.3,0,0.3,0.2,0.3,0.4
					C133.6,29.2,133.7,31.5,133.7,33.8C133.7,33.8,133.7,33.8,133.7,33.8z M127.8,40.2c-0.1,0.7-0.1,1.4-0.2,2.1
					c0,0.3,0,0.4,0.3,0.4c1.5,0,3,0,4.5,0c0.1,0,0.3,0.1,0.3-0.1c0-0.1-0.2-0.2-0.3-0.2c-0.6,0-0.6-0.3-0.5-0.8
					c0.4-1.8,0.8-3.6,1.2-5.4c0-1.1,0-2.2,0-3.2c0-0.1,0-0.3,0-0.4c0-1.8,0-3.6,0-5.4c0-0.2-0.2-0.2-0.4-0.3
					c-1.1-0.1-2.2-0.1-3.3-0.2c-0.4,0-0.5,0.1-0.5,0.4c-0.1,1.1-0.2,2.1-0.3,3.2c-0.3,3.1-0.6,6.2-0.9,9.3c0,0.1,0,0.2,0,0.3
					C127.8,40.1,127.8,40.1,127.8,40.2z M143.9,36.6c-1.7-3.3-3.4-6.5-5-9.6c-0.1-0.2-0.2-0.3-0.4-0.3c-0.8-0.1-1.6-0.1-2.4-0.2
					c-0.3,0-0.4,0.1-0.5,0.3c-1.1,4.9-2.1,9.8-3.2,14.7c-0.1,0.3,0,0.4,0.3,0.5c1.4,0.4,2.9,0.7,4.3,1.1c0.3,0.1,0.4,0,0.4-0.3
					c0.1-1.2,0.1-2.4,0.2-3.7c0.1-1.4,0.2-2.9,0.3-4.5c0.1,0.2,0.2,0.2,0.2,0.3c1.3,2.6,2.7,5.1,3.9,7.7c0.5,1.1,1.1,1.5,2.5,1.5
					c1-0.1,1.6-0.2,1.7-1.3c0-0.8,0.6-1.6,0.4-2.3c-1.1-4.1-0.7-7.8,2.5-11c0.2-0.2,0.3-0.5,0.2-0.7c-0.1-0.2-0.4-0.2-0.6-0.2
					c-0.9-0.1-1.8-0.3-2.7-0.4c-0.3-0.1-0.5,0-0.6,0.4c-0.1,0.7-0.3,1.4-0.4,2.1C144.8,32.5,144.4,34.4,143.9,36.6z M122.6,43.6
					c1.5,0,2.9-0.2,4.2-0.8c0.3-0.1,0.4-0.2,0.4-0.5c0.2-2.2,0.4-4.4,0.6-6.6c0.2-1.8-0.1-2.1-2.1-2.5c-0.4-0.1-0.3-0.2-0.1-0.4
					c1.1-1.4,0.9-3.3-0.4-4.5c-1.5-1.5-4.3-1.6-6.4-0.1c-0.6,0.5-1.4,0.8-1.5,1.7c-0.3,3.7-0.5,7.5-0.8,11.2c0,0.3,0,0.5,0.3,0.6
					C118.6,42.9,120.4,43.6,122.6,43.6z M170,37c0-2.7-0.6-4.6-1.8-6.3c-1.9-2.6-5.3-3.5-8.1-2c-1.6,0.8-2.1,2.1-2.5,3.6
					c-0.1,0.2-0.2,0.6-0.3,0.6c-0.8-0.2-0.6,0.5-0.7,0.8c-0.2,0.7-0.3,1.3-0.4,2c-0.1,0.3,0.1,0.4,0.4,0.4c0.8-0.1,1.5-0.1,2.3-0.2
					c0.3,0,0.5,0,0.5,0.4c0.2,1.8,0.4,3.7,0.6,5.5c0.1,0.6,0.3,1.3-0.5,1.6c-0.2,0.1,0,0.2,0.1,0.2c1.9,1.3,6.1,1.1,7.9-0.4
					C169.5,41.4,169.9,39,170,37z M146.6,36.9c0,1.6,0.3,3.2,1.2,4.5c2.2,3.4,8,4.1,11.5,1.5c0.2-0.2,0.3-0.4,0.3-0.6
					c-0.2-1.9-0.4-3.8-0.6-5.7c0-0.3-0.2-0.3-0.4-0.3c-1.3,0.1-2.6,0.2-3.8,0.3c-0.7,0-0.8,0.2-0.9,0.8c0,1.7-0.1,1.7,1.8,1.7
					c0.2,0,0.5-0.1,0.5,0.2c0,0.4,0.4,0.9-0.2,1.1c-1.2,0.5-2.4,0.4-3.5-0.2c-1.7-0.9-2.3-2.8-1.7-5c0.8-3,3.1-4.2,6.1-3.1
					c0.3,0.1,0.3-0.1,0.3-0.2c0.3-0.7,0.5-1.5,0.8-2.2c0.1-0.3,0-0.5-0.3-0.7c-2.2-1.4-5.3-1.3-7.5,0.2
					C147.5,31.2,146.7,33.9,146.6,36.9z M154.5,39.5c-0.6,0.1-1.5,0.3-1.2-0.9c0.1-0.4,0.1-0.7,0.1-1.1c0-0.9,0.1-1.6,1.4-1.4
					c0.2,0,0.5,0,0.7,0c0.2,0,0.3-0.1,0.3-0.3c0.1-1.1,0.3-2.1,0.7-3.2c0.1-0.2,0-0.3-0.2-0.4c-1-0.6-2.1-0.5-3.1,0.2
					c-1.8,1.2-2.6,3.6-2,5.6c0.5,1.8,2.4,2.8,4.3,2.2c0.3-0.1,0.4-0.2,0.3-0.4c0-0.3-0.2-0.3-0.4-0.3
					C155.1,39.5,154.8,39.5,154.5,39.5z M133,42.5C133,42.5,133,42.5,133,42.5C133,42.5,133.1,42.5,133,42.5
					C133.1,42.5,133.1,42.5,133,42.5C133.1,42.5,133,42.5,133,42.5z"/>
				<path class="st8" d="M132.1,25.9c0-0.4,0.2-0.6,0.6-0.7c0.1,0,0.4,0.1,0.4-0.1c0-0.2-0.2-0.5-0.3-0.7c0,0-0.3,0.1-0.4,0.1
					c-0.9,0.5-1.4,0.2-1.5-0.8c-0.1-2,0.7-3.6,2.6-4.6c0.9-0.5,1.4-0.3,1.6,0.6c0,0.1,0,0.3,0.3,0.3c1.7-0.3,3,0.3,3.8,1.7
					c0.8,1.4,0.5,2.7-0.6,3.9c0,0,0,0.1,0,0.1c-1-0.1-2,0-3-0.2c-0.8-0.1-0.9,0.3-1,0.8c-0.1-0.1-0.3-0.1-0.4-0.2
					C133.6,25.8,132.8,26,132.1,25.9z M135.5,23.2c-0.1,0.1,0.3,0.5-0.3,0.6c-0.5,0-0.6-0.2-0.7-0.6c0-0.4-0.1-0.7-0.1-1.1
					c0-0.1,0-0.3-0.2-0.3c-0.3,0-0.2,0.2-0.2,0.3c0,0.4,0.1,0.8,0.1,1.2c0,0.5,0.3,0.9,0.8,0.8c0.6-0.1,0.7,0.2,0.7,0.6
					c0,0.2,0,0.3,0.1,0.5c0,0.1,0.1,0.1,0.2,0.1c0.1,0,0.2-0.1,0.2-0.2c-0.1-1.1-0.2-2.2-0.3-3.3c0-0.1,0-0.2-0.2-0.2
					c-0.2,0-0.2,0.1-0.2,0.3C135.4,22.3,135.4,22.7,135.5,23.2z M137.9,24.7c-0.2-0.1-0.7,0.3-0.7-0.2c0-0.5-0.5-1.1,0.3-1.4
					c0.4-0.1,0.7-0.3,0.8-0.7c0.1-0.3-0.1-0.6-0.4-0.8c-0.4-0.3-0.9-0.1-1.3,0c0,0-0.1,0.2-0.1,0.2c0,0.1,0.1,0.1,0.2,0.1
					c0.2,0,0.4,0,0.6-0.1c0.3,0,0.5,0.1,0.5,0.4c0,0.2-0.1,0.4-0.4,0.5c-0.9,0.3-1.1,1-0.7,2.3c0.2,0.5,0.7,0.1,1.1,0.1
					c0.2,0,0.7,0.2,0.6-0.2C138.5,24.5,138.1,24.8,137.9,24.7z"/>
				<path class="st8" d="M156.7,45.2c0.8,2.3,0.2,3.8-1.7,4.6c-0.7,0.3-1.5,0.4-2.3,0.2c-0.5-0.1-1-0.4-1.7-0.2
					c-0.6,0.2-1-0.5-0.7-1.1c0.1-0.4,0.1-0.7-0.5-0.8c-0.2-0.9-0.6-1.7-1.2-2.5c0.1-0.5,0.1-0.9,0.4-1.3c0.8,0.5,1.7,0.7,2.5,1.1
					c0.6,0.3,1,0.3,1.5,0.2c0.1,0,0.2,0,0.2,0.1c0.2,0.3-0.3,1.6-0.6,1.8c-0.1,0-0.2,0-0.2,0.2c0,0.1,0.1,0.2,0.1,0.2
					c1-0.1,0.2,0.6,0.4,0.8c0.1,0.1-0.2,0.4,0.1,0.4c0.3,0,0.3-0.2,0.4-0.4c0.1-0.5-0.2-1.1,0.7-1.2c0,0,0.1-0.1,0.1-0.2
					c0-0.1,0-0.2-0.2-0.2c-0.6,0.2-0.3-0.2-0.4-0.4c-0.1-0.9,0.4-1.2,1.3-1.1C155.6,45.4,156.1,45.3,156.7,45.2z"/>
				<path class="st8" d="M134.5,43.5c2.2,2.2,0.7,5.2-1.9,5.6c-1.3,0.2-2.4-0.1-3.3-1.1c-0.9-0.9-1.1-2.1-0.7-3.3
					c0.1-0.2,0.1-0.4,0.1-0.6c-0.2,0.1-0.4,0.1-0.6,0.2c-1.1,0.5-1.7,0.4-2-0.4c1.1-0.7,2.3-0.4,3.5-0.5c1.4,0,2.8,0,4.2,0
					C134.1,43.6,134.3,43.3,134.5,43.5z M133,48c0.7,0,0.9-0.3,1.1-1.3c0.1-0.5,0-0.9-0.6-1.1c-0.5-0.1-0.5-0.3-0.4-0.7
					c0.1-0.5,0.4-0.1,0.7-0.2c0.2,0,0.5,0.3,0.6-0.1c0.1-0.4-0.3-0.2-0.5-0.3c-0.1-0.1-0.2,0-0.3-0.1c-0.5-0.2-0.8-0.1-0.8,0.5
					c0,0.4-0.7,1,0.4,1.2c0.9,0.1,0.5,0.7,0.4,1.2c-0.1,0.5-0.4,0.5-0.9,0.5c-0.2,0-0.6-0.4-0.6,0.1c-0.1,0.4,0.4,0.2,0.6,0.3
					C132.8,48,133,48,133,48z M131.6,44.4c0-0.3-0.1-0.5-0.4-0.6c-0.2-0.1-0.4-0.3-0.6,0c-0.2,0.3,0.1,0.3,0.3,0.4
					c0.2,0.1,0.2,0.2,0.2,0.4c-0.1,0.5-0.1,1-0.4,1.4c-0.2,0.3,0.3,1.3-0.8,1c0,0-0.1,0.1-0.1,0.2c0,0.1,0.1,0.2,0.2,0.2
					c0.4,0.1,0.9,0.2,1.3,0.3c0.1,0,0.3,0,0.3-0.1c0-0.2,0-0.2-0.2-0.3c-0.4,0-0.4-0.3-0.3-0.5C131.3,46,131.4,45.2,131.6,44.4z"/>
				<path class="st8" d="M148.1,44.8c-0.3-0.2-0.6-0.4-1-0.6c0.1-0.4,0.1-0.8,0.2-1.2c0-0.3,0.1-0.2,0.3-0.1
					c0.3,0.3,0.6,0.5,0.8,0.8C148.3,44.1,148.2,44.4,148.1,44.8z"/>
				<path class="st7" d="M148.1,44.8c0-0.4,0.1-0.7,0.3-1.1c0.2,0.2,0.5,0.3,0.7,0.5c-0.3,0.4-0.4,0.9-0.4,1.3
					C148.5,45.3,148.3,45,148.1,44.8z"/>
				<path class="st5" d="M134.3,26.1c0.1,0.1,0.3,0.1,0.4,0.2c-0.1,0.6-0.3,1.2-0.4,2C134.3,27.4,134.3,26.8,134.3,26.1z"/>
				<path class="st8" d="M148.1,19.5c2.4-1.2,4.7,0,5.4,2c0.2,0.8,0.1,1.7-0.3,2.4c0,0,0,0,0,0c0,0.1-0.1,0.1-0.1,0.2c0,0,0,0,0,0
					c0,0.1-0.1,0.1-0.1,0.2c0,0,0,0,0,0c-0.1,0-0.2,0.1-0.1,0.2c0,0,0,0,0,0c-0.1,0-0.1,0.1-0.2,0.1c-0.1,0.1-0.1,0.1-0.2,0.2
					c-0.1,0.1-0.2,0.1-0.3,0.2c0,0,0,0,0,0c-0.1,0.1-0.3,0.2-0.4,0.3c0,0,0,0,0,0c-1.5,0.6-3,0.5-4.3-0.5c0,0,0,0,0,0
					c-0.1-0.1-0.1-0.1-0.2-0.2c0,0,0,0,0,0c-0.1-0.1-0.1-0.1-0.2-0.2c0,0,0,0,0,0c-0.1-0.1-0.1-0.2-0.2-0.3c0,0,0,0,0,0
					c0,0,0-0.1-0.1-0.1c-0.5-0.9-0.7-1.9-0.2-2.9c0-0.1,0-0.2,0-0.2c-0.1,0-0.2,0.1-0.3,0.1c-0.7,0.5-1.4,1-2.3,1.1
					c-0.5,0-0.7-0.2-0.8-0.6c-0.1-2,2.1-4.3,4.3-4.4c0.8,0,1.1,0.3,1,1C148.5,18.5,148.2,19,148.1,19.5c-0.1,0-0.2,0-0.2,0
					C148,19.5,148.1,19.5,148.1,19.5z M150.3,23.6c0,0.5,0.3,0.9,1,0.9c1-0.1,0.8-0.9,0.9-1.5c0.1-0.5-0.2-0.8-0.8-0.9
					c-0.2,0-0.4,0-0.4-0.3c0.1-0.3,0.1-0.5,0.5-0.5c0.2,0,0.4,0,0.5,0.1c0.1,0,0.2,0,0.2-0.1c0-0.1,0-0.2-0.1-0.3
					c-0.5-0.3-1.4-0.1-1.5,0.5C150.5,22.1,150.4,22.9,150.3,23.6z M150.1,21.3c0-0.6-1-1.2-1.5-1c-0.1,0-0.1,0.1-0.1,0.2
					c0,0.1,0.1,0.2,0.2,0.2c0.2,0,0.4,0.1,0.6,0.1c0.3,0,0.5,0.2,0.5,0.5c0,0.3-0.2,0.4-0.5,0.4c-0.9,0.1-1.4,0.7-1.3,2.1
					c0,0.5,0.7,0.2,1.1,0.3c0.2,0,0.6,0.3,0.6-0.1c0.1-0.4-0.4-0.2-0.6-0.3c-0.2-0.1-0.7,0.1-0.6-0.3c0.1-0.5-0.2-1.3,0.8-1.4
					C149.8,22,150,21.7,150.1,21.3z"/>
				<path class="st8" d="M145.5,23.5c0,0.5-0.4,0.8-0.9,0.8c-0.5,0-0.8-0.3-0.8-0.8c0-0.5,0.3-0.8,0.9-0.8
					C145.1,22.7,145.4,23,145.5,23.5z"/>
				<path class="st3" d="M147.6,24.7c1.3,1,2.7,1.1,4.3,0.5C150.8,26.1,147.9,25.8,147.6,24.7z"/>
				<path class="st3" d="M153.2,23.9c0.4-0.8,0.5-1.6,0.3-2.4C153.9,22,153.7,23.7,153.2,23.9z"/>
				<path class="st3" d="M151.8,25.3c0.1-0.1,0.3-0.2,0.4-0.3C152.2,25.2,152.1,25.3,151.8,25.3z"/>
				<path class="st3" d="M147,24.2c0.1,0.1,0.1,0.2,0.2,0.3C147,24.4,147,24.3,147,24.2z"/>
				<path class="st3" d="M152.3,24.9c0.1-0.1,0.2-0.1,0.3-0.2C152.6,24.9,152.4,24.9,152.3,24.9z"/>
				<path class="st3" d="M147.2,24.4c0.1,0.1,0.1,0.1,0.2,0.2C147.2,24.6,147.2,24.5,147.2,24.4z"/>
				<path class="st3" d="M147.4,24.6c0.1,0.1,0.1,0.1,0.2,0.2C147.4,24.8,147.4,24.7,147.4,24.6z"/>
				<path class="st3" d="M153.1,24.1c0-0.1,0.1-0.1,0.1-0.2C153.1,24,153.1,24,153.1,24.1z"/>
				<path class="st3" d="M153,24.3c0-0.1,0.1-0.1,0.1-0.2C153,24.1,153,24.2,153,24.3z"/>
				<path class="st3" d="M152.9,24.4c-0.1-0.1,0-0.1,0.1-0.2C153,24.3,152.9,24.4,152.9,24.4z"/>
				<path class="st3" d="M152.7,24.5c0.1,0,0.1-0.1,0.2-0.1C152.8,24.4,152.8,24.5,152.7,24.5z"/>
				<path class="st3" d="M146.9,24c0,0,0,0.1,0.1,0.1C147,24.1,147,24.1,146.9,24z"/>
				<path class="st8" d="M140.3,49.7c-0.4,0.5-0.7,1-1.3,1.3c-0.5,0.2-0.8,0.1-1-0.3c-0.9-1.7,0-4.5,1.8-5.6
					c0.8-0.5,1.2-0.3,1.6,0.9c0,0.3,0,0.6,0,1c0.6-0.9,1.4-1.5,2.4-1.7c1-0.2,2,0,2.9,0.5c1.3,0.8,1.9,2.5,1.3,3.9
					c-0.6,1.4-2.2,2.3-3.7,2.1c-1.8-0.2-3-1.4-3.2-3.3C140.7,48.9,140.5,49.3,140.3,49.7z M142.7,49c0.1,0.3,0.2,0.5,0.2,0.7
					c0.1,0.6,0.4,1.1,1.2,1c0.8-0.2,0.7-0.8,0.6-1.4c-0.1-0.6-0.7-1-0.5-1.7c0.1-0.3-0.3-0.5-0.7-0.6c-0.4-0.1-0.7,0-0.9,0.3
					c-0.2,0.3-0.3,0.6-0.1,0.9C142.7,48.4,143,48.6,142.7,49z M146.5,47.1c-0.1-0.6-0.6-0.8-1.3-0.6c-0.2,0.1-0.6-0.1-0.5,0.3
					c0.1,0.4,0.4,0.1,0.6,0c0.3,0,0.6-0.1,0.8,0.2c0.1,0.4-0.1,0.5-0.5,0.6c-0.2,0-0.3,0.1-0.2,0.3c0.1,0.2,0.2,0.2,0.4,0.1
					c0.4-0.1,0.6,0.1,0.8,0.4c0.3,0.7,0.2,1.2-0.8,1.3c-0.1,0-0.3,0-0.2,0.2c0,0.1,0.1,0.2,0.2,0.2c0.7,0.2,1.5-0.6,1.4-1.3
					C147,48.3,146.4,47.9,146.5,47.1z"/>
				<path class="st8" d="M127.4,45.4c0.5,0.1,0.8,0.3,0.8,0.8c0,0.5-0.3,0.8-0.9,0.8c-0.5,0-0.8-0.3-0.8-0.8
					C126.5,45.7,126.8,45.4,127.4,45.4z"/>
				<path class="st8" d="M140.9,52.2c0,0.4-0.3,0.7-0.8,0.7c-0.6,0-0.9-0.3-0.9-0.8c0-0.5,0.3-0.8,0.9-0.8
					C140.6,51.4,140.9,51.6,140.9,52.2z"/>
				<path class="st7" d="M143.9,36.6c0.4-2.2,0.8-4.1,1.2-6.1c0.1-0.7,0.3-1.4,0.4-2.1c0.1-0.4,0.3-0.4,0.6-0.4
					c0.9,0.1,1.8,0.3,2.7,0.4c0.2,0,0.5,0,0.6,0.2c0.1,0.2,0,0.5-0.2,0.7c-3.2,3.2-3.6,6.9-2.5,11c0.2,0.8-0.3,1.6-0.4,2.3
					c-0.1,1-0.6,1.2-1.7,1.3c-1.3,0.1-2-0.3-2.5-1.5c-1.2-2.6-2.6-5.1-3.9-7.7c0-0.1-0.1-0.1-0.2-0.3c-0.1,1.6-0.2,3-0.3,4.5
					c-0.1,1.2-0.1,2.4-0.2,3.7c0,0.3-0.2,0.4-0.4,0.3c-1.4-0.4-2.9-0.7-4.3-1.1c-0.3-0.1-0.3-0.2-0.3-0.5c1.1-4.9,2.2-9.8,3.2-14.7
					c0.1-0.3,0.2-0.3,0.5-0.3c0.8,0.1,1.6,0.1,2.4,0.2c0.2,0,0.3,0.2,0.4,0.3C140.6,30.1,142.2,33.3,143.9,36.6z"/>
				<path class="st6" d="M122.6,43.6c-2.1,0-4-0.6-5.6-1.8c-0.3-0.2-0.3-0.4-0.3-0.6c0.3-3.7,0.6-7.5,0.8-11.2
					c0.1-0.9,0.8-1.3,1.5-1.7c2.1-1.5,4.8-1.5,6.4,0.1c1.3,1.3,1.4,3.1,0.4,4.5c-0.2,0.2-0.3,0.3,0.1,0.4c2,0.4,2.2,0.6,2.1,2.5
					c-0.2,2.2-0.4,4.4-0.6,6.6c0,0.3-0.2,0.4-0.4,0.5C125.4,43.3,124,43.6,122.6,43.6z M122.5,40.5c0.1,0,0.5,0,0.8-0.1
					c1.2-0.2,1.9-1,2-2.1c0.1-1-0.6-1.8-1.7-2.1c-1.1-0.3-2.2-0.1-3.1,0.5c-0.5,0.4-0.1,1.1-0.2,1.7c0,0.1,0,0.2,0,0.3
					C120.3,40.3,120.5,40.5,122.5,40.5z M120.7,32.9c1.5,0,2.4-0.6,2.4-1.6c0-0.8-0.7-1.4-1.5-1.3c-0.6,0-1.5,0-1.4,0.8
					C120.3,31.5,119.5,32.7,120.7,32.9z"/>
				<path class="st6" d="M170,37c-0.1,2-0.5,4.4-2.6,6.2c-1.8,1.5-6,1.7-7.9,0.4c-0.1-0.1-0.3-0.1-0.1-0.2c0.9-0.4,0.6-1,0.5-1.6
					c-0.2-1.8-0.4-3.7-0.6-5.5c0-0.3-0.2-0.4-0.5-0.4c-0.8,0.1-1.5,0.1-2.3,0.2c-0.3,0-0.5,0-0.4-0.4c0.1-0.7,0.2-1.4,0.4-2
					c0.1-0.3-0.2-1,0.7-0.8c0,0,0.2-0.4,0.3-0.6c0.4-1.4,1-2.8,2.5-3.6c2.8-1.4,6.2-0.6,8.1,2C169.4,32.4,170,34.3,170,37z
					 M159.6,36.7c0,0.6,0.1,1.4,0.4,2.2c0.5,1.2,1.4,2,2.8,2.1c1.2,0.1,2.1-0.4,2.6-1.5c1-2.2,1-4.4-0.3-6.5
					c-0.5-0.9-1.4-1.5-2.6-1.4c-1.1,0.1-1.8,0.8-2.3,1.7C159.8,34.3,159.6,35.4,159.6,36.7z"/>
				<path class="st5" d="M146.6,36.9c0.1-3,0.9-5.7,3.6-7.7c2.1-1.5,5.2-1.6,7.5-0.2c0.3,0.2,0.4,0.4,0.3,0.7
					c-0.3,0.7-0.5,1.5-0.8,2.2c0,0.1,0,0.3-0.3,0.2c-3-1.2-5.3,0-6.1,3.1c-0.6,2.3,0,4.1,1.7,5c1.1,0.6,2.3,0.7,3.5,0.2
					c0.6-0.2,0.1-0.7,0.2-1.1c0-0.3-0.3-0.2-0.5-0.2c-1.9,0-1.9,0-1.8-1.7c0-0.6,0.2-0.8,0.9-0.8c1.3,0,2.6-0.2,3.8-0.3
					c0.3,0,0.4,0,0.4,0.3c0.2,1.9,0.4,3.8,0.6,5.7c0,0.3-0.1,0.5-0.3,0.6c-3.5,2.6-9.3,1.9-11.5-1.5
					C146.9,40.1,146.6,38.5,146.6,36.9z M154,29.9c-0.1-0.8-0.6-0.7-1.2-0.5c-2.2,0.8-3.7,2.3-4.6,4.3c-0.2,0.4-0.3,0.9,0.3,1.1
					c0.6,0.2,0.9-0.2,1.1-0.7c0.7-1.8,2-3,3.9-3.5C153.8,30.5,154,30.2,154,29.9z"/>
				<path class="st7" d="M127.9,39.7c0.3-3.1,0.6-6.2,0.9-9.3c0.1-1.1,0.2-2.1,0.3-3.2c0-0.3,0.1-0.5,0.5-0.4
					c1.1,0.1,2.2,0.1,3.3,0.2c0.2,0,0.4,0,0.4,0.3c0,1.8,0,3.6,0,5.4c-0.7,1.7-1.9,3.2-3.1,4.6C129.4,38,128,38.4,127.9,39.7z"/>
				<path class="st4" d="M127.9,39.7c0.1-1.3,1.5-1.7,2.2-2.5c1.2-1.4,2.4-2.9,3.1-4.6c0,0.1,0,0.3,0,0.4c0,1.1,0,2.2,0,3.2
					c-0.4,1.8-0.8,3.6-1.2,5.4c-0.1,0.4-0.1,0.7,0.5,0.8c0.1,0,0.3,0.1,0.3,0.2c0,0.2-0.2,0.1-0.3,0.1c-1.5,0-3,0-4.5,0
					c-0.3,0-0.4-0.1-0.3-0.4c0.1-0.7,0.1-1.4,0.2-2.1c0-0.1,0-0.1,0-0.2C127.9,39.9,127.9,39.8,127.9,39.7z"/>
				<path class="st3" d="M154.5,39.5c0.3,0,0.6,0,0.9,0c0.2,0,0.4,0,0.4,0.3c0,0.3-0.1,0.4-0.3,0.4c-1.9,0.6-3.8-0.4-4.3-2.2
					c-0.6-2,0.3-4.4,2-5.6c1-0.7,2-0.7,3.1-0.2c0.2,0.1,0.2,0.2,0.2,0.4c-0.4,1-0.6,2.1-0.7,3.2c0,0.2-0.1,0.3-0.3,0.3
					c-0.2,0-0.5,0.1-0.7,0c-1.2-0.2-1.4,0.5-1.4,1.4c0,0.4,0,0.7-0.1,1.1C153,39.8,153.8,39.6,154.5,39.5z M152.7,39.3
					c0-0.7,0.1-1.3,0.1-1.9c0.1-1.6,0.1-1.6,1.8-1.8c0.2,0,0.5,0,0.5-0.3c0.1-0.8,0.3-1.5,0.5-2.3c0.1-0.2,0-0.3-0.2-0.4
					c-0.6-0.2-1.1-0.1-1.6,0.2c-0.9,0.5-1.5,1.3-1.9,2.2C151.2,36.6,151.5,38.4,152.7,39.3z"/>
				<path class="st7" d="M133.2,36.2c0-1.1,0-2.2,0-3.2C133.2,34,133.2,35.1,133.2,36.2z"/>
				<path class="st7" d="M127.8,40c0,0.1,0,0.1,0,0.2C127.8,40.1,127.8,40.1,127.8,40z"/>
				<path class="st4" d="M133,42.5C133,42.5,133.1,42.5,133,42.5C133.1,42.5,133.1,42.5,133,42.5C133.1,42.5,133,42.5,133,42.5
					C133,42.5,133,42.5,133,42.5z"/>
				<path class="st3" d="M135.5,23.2c0-0.5-0.1-0.9-0.1-1.3c0-0.1-0.1-0.3,0.2-0.3c0.2,0,0.2,0.1,0.2,0.2c0.1,1.1,0.2,2.2,0.3,3.3
					c0,0.1-0.1,0.2-0.2,0.2c-0.1,0-0.2-0.1-0.2-0.1c0-0.1-0.1-0.3-0.1-0.5c0-0.4-0.1-0.7-0.7-0.6c-0.5,0.1-0.8-0.3-0.8-0.8
					c0-0.4-0.1-0.8-0.1-1.2c0-0.1-0.1-0.3,0.2-0.3c0.3,0,0.2,0.2,0.2,0.3c0,0.4,0.1,0.7,0.1,1.1c0,0.4,0.2,0.6,0.7,0.6
					C135.8,23.7,135.3,23.3,135.5,23.2z"/>
				<path class="st3" d="M137.9,24.7c0.2,0.1,0.6-0.3,0.7,0.1c0,0.4-0.4,0.2-0.6,0.2c-0.4,0-0.9,0.4-1.1-0.1c-0.5-1.4-0.2-2,0.7-2.3
					c0.2-0.1,0.4-0.2,0.4-0.5c0-0.3-0.2-0.4-0.5-0.4c-0.2,0-0.4,0-0.6,0.1c-0.1,0-0.2,0-0.2-0.1c0-0.1,0-0.2,0.1-0.2
					c0.4,0,0.9-0.2,1.3,0c0.3,0.2,0.5,0.5,0.4,0.8c-0.1,0.4-0.4,0.6-0.8,0.7c-0.8,0.3-0.3,0.9-0.3,1.4
					C137.2,25.1,137.6,24.6,137.9,24.7z"/>
				<path class="st3" d="M133,48c-0.1,0-0.2,0-0.4-0.1c-0.2-0.1-0.6,0.1-0.6-0.3c0.1-0.4,0.4-0.1,0.6-0.1c0.5,0.1,0.8,0,0.9-0.5
					c0.1-0.5,0.5-1.1-0.4-1.2c-1.1-0.1-0.4-0.8-0.4-1.2c0-0.5,0.3-0.6,0.8-0.5c0.1,0,0.3,0,0.3,0.1c0.2,0.1,0.5-0.1,0.5,0.3
					c-0.1,0.4-0.4,0.1-0.6,0.1c-0.2,0-0.5-0.3-0.7,0.2c-0.1,0.3-0.2,0.6,0.4,0.7c0.6,0.1,0.7,0.6,0.6,1.1C134,47.7,133.7,48,133,48z
					"/>
				<path class="st3" d="M131.6,44.4c-0.2,0.8-0.4,1.5-0.6,2.3c-0.1,0.3-0.1,0.5,0.3,0.5c0.2,0,0.2,0.1,0.2,0.3
					c0,0.2-0.2,0.2-0.3,0.1c-0.4-0.1-0.9-0.2-1.3-0.3c-0.1,0-0.2-0.1-0.2-0.2c0-0.1,0.1-0.2,0.1-0.2c1.1,0.3,0.6-0.7,0.8-1
					c0.3-0.4,0.3-0.9,0.4-1.4c0-0.2,0-0.3-0.2-0.4c-0.2-0.1-0.5-0.1-0.3-0.4c0.2-0.3,0.4,0,0.6,0C131.5,44,131.6,44.2,131.6,44.4z"
					/>
				<path class="st3" d="M150.3,23.6c0.1-0.7,0.2-1.5,0.4-2.2c0.1-0.6,1-0.9,1.5-0.5c0.1,0,0.1,0.2,0.1,0.3c0,0.1-0.1,0.1-0.2,0.1
					c-0.2,0-0.4-0.1-0.5-0.1c-0.4,0-0.4,0.3-0.5,0.5c-0.1,0.3,0.2,0.3,0.4,0.3c0.5,0.1,0.8,0.4,0.8,0.9c-0.1,0.6,0,1.4-0.9,1.5
					C150.6,24.5,150.3,24.2,150.3,23.6z M151.8,23c0-0.4-0.3-0.6-0.6-0.5c-0.6,0.2-0.3,0.8-0.4,1.2c-0.1,0.2,0.1,0.5,0.4,0.4
					C151.9,24,151.5,23.3,151.8,23z"/>
				<path class="st3" d="M150.1,21.3c-0.1,0.4-0.3,0.8-0.9,0.8c-1.1,0-0.7,0.9-0.8,1.4c-0.1,0.4,0.4,0.2,0.6,0.3
					c0.2,0.1,0.7-0.1,0.6,0.3c-0.1,0.4-0.5,0.1-0.6,0.1c-0.4-0.1-1,0.1-1.1-0.3c-0.1-1.4,0.3-2,1.3-2.1c0.3,0,0.5-0.1,0.5-0.4
					c0-0.3-0.2-0.4-0.5-0.5c-0.2,0-0.4-0.1-0.6-0.1c-0.1,0-0.2-0.1-0.2-0.2c0-0.1,0-0.2,0.1-0.2C149,20.1,150.1,20.7,150.1,21.3z"/>
				<path class="st4" d="M148.1,19.5c-0.1,0-0.1,0-0.2,0C148,19.5,148,19.4,148.1,19.5C148.1,19.4,148.1,19.5,148.1,19.5z"/>
				<path class="st3" d="M142.7,49c0.2-0.3,0-0.5-0.2-0.8c-0.2-0.3-0.2-0.6,0.1-0.9c0.2-0.3,0.5-0.4,0.9-0.3
					c0.4,0.1,0.7,0.3,0.7,0.6c-0.1,0.7,0.4,1.1,0.5,1.7c0.1,0.6,0.3,1.2-0.6,1.4c-0.8,0.2-1-0.4-1.2-1
					C142.9,49.5,142.8,49.2,142.7,49z M144.4,49.8c-0.3-0.3,0-1-0.7-1.2c-0.3-0.1-0.5,0.2-0.4,0.4c0.2,0.5-0.1,1.2,0.7,1.3
					C144.2,50.3,144.4,50.1,144.4,49.8z M143.3,48.2c0.3,0,0.5-0.2,0.4-0.4c0-0.3-0.2-0.4-0.5-0.4c-0.3,0-0.4,0.2-0.4,0.4
					C142.9,48,143,48.2,143.3,48.2z"/>
				<path class="st3" d="M146.5,47.1c-0.1,0.8,0.5,1.2,0.6,1.9c0.1,0.7-0.6,1.4-1.4,1.3c-0.1,0-0.1-0.1-0.2-0.2
					c-0.1-0.2,0.1-0.2,0.2-0.2c1-0.1,1-0.6,0.8-1.3c-0.1-0.4-0.3-0.6-0.8-0.4c-0.2,0-0.3,0.1-0.4-0.1c-0.1-0.2,0-0.2,0.2-0.3
					c0.3-0.1,0.6-0.2,0.5-0.6c-0.1-0.4-0.4-0.3-0.8-0.2c-0.2,0-0.5,0.4-0.6,0c-0.1-0.4,0.3-0.3,0.5-0.3
					C146,46.3,146.4,46.5,146.5,47.1z"/>
				<path class="st8" d="M122.5,40.5c-2,0-2.2-0.2-2.2-1.8c0-0.1,0-0.2,0-0.3c0.1-0.6-0.4-1.3,0.2-1.7c0.9-0.6,2-0.8,3.1-0.5
					c1.1,0.3,1.8,1.1,1.7,2.1c-0.1,1.1-0.9,1.9-2,2.1C123,40.5,122.6,40.5,122.5,40.5z M122.6,40.1c0.1,0,0.5,0,0.9-0.1
					c1-0.3,1.6-1.2,1.4-2.1c-0.2-1-1.3-1.6-2.7-1.4c-1.2,0.1-1.5,0.4-1.5,1.6c0,0.2,0,0.4,0,0.6C120.7,40.1,120.8,40.1,122.6,40.1z"
					/>
				<path class="st8" d="M120.7,32.9c-1.2-0.2-0.5-1.4-0.6-2.2c-0.1-0.8,0.8-0.7,1.4-0.8c0.9-0.1,1.5,0.6,1.5,1.3
					C123.1,32.3,122.3,32.9,120.7,32.9z M120.6,31.2c0.4,0.3-0.6,1.3,0.6,1.3c0.8,0,1.5-0.3,1.5-1.2c0-0.6-0.5-1-1.1-0.9
					C121.1,30.4,120.4,30.4,120.6,31.2z"/>
				<path class="st8" d="M159.6,36.7c0-1.3,0.2-2.4,0.7-3.4c0.5-0.9,1.1-1.6,2.3-1.7c1.2-0.1,2,0.5,2.6,1.4c1.3,2.1,1.3,4.3,0.3,6.5
					c-0.5,1-1.4,1.5-2.6,1.5c-1.5-0.1-2.4-0.8-2.8-2.1C159.7,38.1,159.6,37.3,159.6,36.7z M165.6,36.7c0-1.6-0.3-2.7-1-3.7
					c-1.1-1.4-2.8-1.4-3.7,0.1c-1.1,1.9-1.2,3.9-0.4,5.9c0.5,1.1,1.4,1.6,2.7,1.5c1.2-0.1,1.7-0.8,2.1-1.8
					C165.6,38.1,165.7,37.3,165.6,36.7z"/>
				<path class="st7" d="M154,29.9c0,0.4-0.2,0.6-0.5,0.7c-1.9,0.6-3.2,1.8-3.9,3.5c-0.2,0.4-0.4,0.9-1.1,0.7
					c-0.7-0.2-0.5-0.7-0.3-1.1c0.8-2.1,2.4-3.5,4.6-4.3C153.4,29.1,153.9,29.1,154,29.9z"/>
				<path class="st8" d="M151.8,23c-0.2,0.3,0.1,1-0.6,1.1c-0.3,0-0.5-0.2-0.4-0.4c0.1-0.4-0.2-1,0.4-1.2
					C151.5,22.3,151.7,22.6,151.8,23z"/>
				<path class="st8" d="M144.4,49.8c0,0.3-0.1,0.6-0.4,0.5c-0.8-0.1-0.5-0.9-0.7-1.3c-0.1-0.2,0.2-0.5,0.4-0.4
					C144.4,48.7,144.1,49.4,144.4,49.8z"/>
				<path class="st8" d="M143.3,48.2c-0.3,0-0.5-0.2-0.4-0.4c0-0.2,0.1-0.4,0.4-0.4c0.3,0,0.5,0.1,0.5,0.4
					C143.8,48,143.6,48.1,143.3,48.2z"/>
				<path class="st3" d="M122.6,40.1c-1.8,0-1.9-0.1-1.9-1.4c0-0.2,0-0.4,0-0.6c0-1.2,0.2-1.4,1.5-1.6c1.4-0.1,2.4,0.4,2.7,1.4
					c0.2,0.9-0.4,1.8-1.4,2.1C123.1,40.1,122.7,40.1,122.6,40.1z M122.3,39.6c1.2,0,1.9-0.5,2-1.3c0-0.7-0.7-1.2-1.7-1.2
					c-0.5,0-1.3-0.1-1.2,0.6C121.5,38.3,120.6,39.6,122.3,39.6z"/>
				<path class="st3" d="M120.6,31.2c-0.2-0.8,0.5-0.8,0.9-0.8c0.7-0.1,1.1,0.3,1.1,0.9c0,0.9-0.6,1.2-1.5,1.2
					C120,32.5,121,31.5,120.6,31.2z M121.2,31.5c0.1,0.1-0.2,0.5,0.2,0.4c0.3,0,0.6-0.2,0.6-0.6c0-0.3-0.2-0.4-0.5-0.4
					C121.2,30.9,121.1,31.1,121.2,31.5z"/>
				<path class="st3" d="M165.6,36.7c0,0.6-0.1,1.4-0.4,2.1c-0.4,0.9-0.9,1.7-2.1,1.8c-1.3,0.1-2.2-0.4-2.7-1.5
					c-0.8-2-0.7-4,0.4-5.9c0.9-1.5,2.7-1.5,3.7-0.1C165.3,34,165.7,35.1,165.6,36.7z M165,36.5c0-1.2-0.4-2.5-1-3.2
					c-0.8-0.9-2-0.9-2.6,0.2c-1,1.8-1.1,3.6-0.3,5.5c0.3,0.8,1.1,1.1,2,1.1c0.9,0,1.2-0.6,1.5-1.2C165,38.1,165,37.3,165,36.5z"/>
			</g>
			<polygon class="st8" points="133.4,21.5 136.1,20.9 137.5,21 138.5,21.4 138.8,22.8 138.9,24.6 138.8,25.6 136.9,25.4 
				135.4,25.3 134.3,25.1 133.2,23.9 			"/>
			<polygon class="st8" points="147.8,20.3 150.3,19.7 152.5,20.5 152.9,23.1 152.3,24.3 150.4,24.9 148.1,24.7 147.1,23.5 			"/>
			<polygon class="st8" points="130.2,43.7 131.6,43.6 133.4,43.8 134.7,44.2 135,45.5 134.6,47.3 133.4,48.4 132,48.4 130.1,48.2 
				129.2,47.2 			"/>
			<polygon class="st8" points="141.9,47.5 144,45.8 146.3,45.8 147.2,47.3 147.7,49.1 146.6,50.7 143.8,51.2 142.7,50.5 			"/>
			<path class="st3" d="M149.5,44.2c0,0,2,2.2,7.2,1l-0.3-0.2l-3.3,0.2L149.5,44.2z"/>
			<polygon class="st3" points="149.5,43.8 149.5,44.2 153.1,45.2 			"/>
			<path class="st8" d="M152.1,45.5c0,0,2.6,0.2,3.4,0c0.8-0.2,0.2,2.7,0.2,2.7l-2.2,1.2l-2.2-0.6L152.1,45.5z"/>
			<ellipse class="st8" cx="150.3" cy="22.5" rx="3.8" ry="3.5"/>
			<g>
				<g>
					<path class="st7" d="M150.1,23.3c0-0.2,0-0.3,0-0.5c0,0,0-0.1-0.1-0.1c-0.2,0-0.4-0.1-0.7-0.2c-0.2-0.1-0.4-0.2-0.5-0.4
						c-0.3-0.5-0.1-1.1,0.7-1.4c0.1,0,0.2-0.1,0.3-0.1c0,0,0,0,0,0c0-0.1,0-0.3,0-0.4c0,0,0,0,0.1-0.1c0.1,0,0.2,0,0.3,0
						c0,0,0.1,0,0.1,0c0,0.1,0,0.2,0,0.4c0,0.1,0,0.1,0.1,0.1c0.2,0,0.4,0.1,0.6,0.1c0.2,0.1,0.4,0.3,0.5,0.4c0,0,0,0,0,0.1
						c-0.2,0.1-0.3,0.2-0.5,0.3c0,0,0,0-0.1,0c-0.1-0.2-0.3-0.3-0.5-0.3c-0.1,0-0.1,0-0.1,0c0,0.3,0.1,0.6,0.1,0.9
						c0,0,0,0.1,0.1,0.1c0.2,0,0.4,0.1,0.6,0.2c0.5,0.2,0.7,0.5,0.7,0.9c0,0.5-0.4,0.8-0.9,1c-0.1,0-0.1,0-0.2,0c0,0-0.1,0-0.1,0.1
						c0,0.1,0,0.2,0,0.4c0,0,0,0,0,0c-0.1,0-0.2,0-0.3,0c0,0-0.1,0-0.1,0c0-0.1,0-0.2,0-0.4c0,0,0-0.1-0.1-0.1c-0.4,0-0.7-0.1-1-0.2
						c-0.2-0.1-0.3-0.2-0.4-0.4c0,0,0,0,0-0.1c0.2-0.1,0.3-0.2,0.5-0.3c0,0,0,0,0.1,0c0.2,0.3,0.4,0.4,0.8,0.4c0,0,0,0,0,0
						C150.2,23.6,150.2,23.5,150.1,23.3z M150.5,23.3c0,0.1,0,0.3,0,0.4c0,0,0,0,0.1,0c0.1,0,0.1-0.1,0.2-0.1c0.3-0.2,0.3-0.6,0-0.7
						c-0.1,0-0.2-0.1-0.3-0.1c0,0-0.1,0-0.1,0C150.5,23,150.5,23.2,150.5,23.3z M150,21.7c0-0.1,0-0.3,0-0.4c0,0,0,0-0.1,0
						c-0.1,0-0.2,0.1-0.2,0.1c-0.3,0.2-0.3,0.5,0,0.7c0.1,0,0.2,0.1,0.3,0.1c0,0,0.1,0,0,0C150,22,150,21.8,150,21.7z"/>
				</g>
			</g>
			<g>
				<g>
					<path class="st4" d="M135.9,23.6c0-0.2,0-0.3,0-0.5c0,0,0-0.1-0.1-0.1c-0.2,0-0.4-0.1-0.7-0.2c-0.2-0.1-0.4-0.2-0.5-0.4
						c-0.3-0.5-0.1-1.1,0.7-1.4c0.1,0,0.2-0.1,0.3-0.1c0,0,0,0,0,0c0-0.1,0-0.3,0-0.4c0,0,0,0,0.1-0.1c0.1,0,0.2,0,0.3,0
						c0,0,0.1,0,0.1,0c0,0.1,0,0.2,0,0.4c0,0.1,0,0.1,0.1,0.1c0.2,0,0.4,0.1,0.6,0.1c0.2,0.1,0.4,0.3,0.5,0.4c0,0,0,0,0,0.1
						c-0.2,0.1-0.3,0.2-0.5,0.3c0,0,0,0-0.1,0c-0.1-0.2-0.3-0.3-0.5-0.3c-0.1,0-0.1,0-0.1,0c0,0.3,0.1,0.6,0.1,0.9
						c0,0,0,0.1,0.1,0.1c0.2,0,0.4,0.1,0.6,0.2c0.5,0.2,0.7,0.5,0.7,0.9c0,0.5-0.4,0.8-0.9,1c-0.1,0-0.1,0-0.2,0c0,0-0.1,0-0.1,0.1
						c0,0.1,0,0.2,0,0.4c0,0,0,0,0,0c-0.1,0-0.2,0-0.3,0c0,0-0.1,0-0.1,0c0-0.1,0-0.2,0-0.4c0,0,0-0.1-0.1-0.1c-0.4,0-0.7-0.1-1-0.2
						c-0.2-0.1-0.3-0.2-0.4-0.4c0,0,0,0,0-0.1c0.2-0.1,0.3-0.2,0.5-0.3c0,0,0,0,0.1,0c0.2,0.3,0.4,0.4,0.8,0.4c0,0,0,0,0,0
						C136,24,136,23.8,135.9,23.6z M136.4,23.7c0,0.1,0,0.3,0,0.4c0,0,0,0,0.1,0c0.1,0,0.1-0.1,0.2-0.1c0.3-0.2,0.3-0.6,0-0.7
						c-0.1,0-0.2-0.1-0.3-0.1c0,0-0.1,0-0.1,0C136.3,23.4,136.3,23.5,136.4,23.7z M135.8,22c0-0.1,0-0.3,0-0.4c0,0,0,0-0.1,0
						c-0.1,0-0.2,0.1-0.2,0.1c-0.3,0.2-0.3,0.5,0,0.7c0.1,0,0.2,0.1,0.3,0.1c0,0,0.1,0,0,0C135.8,22.3,135.8,22.2,135.8,22z"/>
				</g>
			</g>
			<g>
				<g>
					<path class="st5" d="M144.3,49.1c0-0.2,0-0.3,0-0.5c0,0,0-0.1-0.1-0.1c-0.2,0-0.4-0.1-0.7-0.2c-0.2-0.1-0.4-0.2-0.5-0.4
						c-0.3-0.5-0.1-1.1,0.7-1.4c0.1,0,0.2-0.1,0.3-0.1c0,0,0,0,0,0c0-0.1,0-0.3,0-0.4c0,0,0,0,0.1-0.1c0.1,0,0.2,0,0.3,0
						c0,0,0.1,0,0.1,0c0,0.1,0,0.2,0,0.4c0,0.1,0,0.1,0.1,0.1c0.2,0,0.4,0.1,0.6,0.1c0.2,0.1,0.4,0.3,0.5,0.4c0,0,0,0,0,0.1
						c-0.2,0.1-0.3,0.2-0.5,0.3c0,0,0,0-0.1,0c-0.1-0.2-0.3-0.3-0.5-0.3c-0.1,0-0.1,0-0.1,0c0,0.3,0.1,0.6,0.1,0.9
						c0,0,0,0.1,0.1,0.1c0.2,0,0.4,0.1,0.6,0.2c0.5,0.2,0.7,0.5,0.7,0.9c0,0.5-0.4,0.8-0.9,1c-0.1,0-0.1,0-0.2,0c0,0-0.1,0-0.1,0.1
						c0,0.1,0,0.2,0,0.4c0,0,0,0,0,0c-0.1,0-0.2,0-0.3,0c0,0-0.1,0-0.1,0c0-0.1,0-0.2,0-0.4c0,0,0-0.1-0.1-0.1c-0.4,0-0.7-0.1-1-0.2
						c-0.2-0.1-0.3-0.2-0.4-0.4c0,0,0,0,0-0.1c0.2-0.1,0.3-0.2,0.5-0.3c0,0,0,0,0.1,0c0.2,0.3,0.4,0.4,0.8,0.4c0,0,0,0,0,0
						C144.3,49.4,144.3,49.3,144.3,49.1z M144.7,49.1c0,0.1,0,0.3,0,0.4c0,0,0,0,0.1,0c0.1,0,0.1-0.1,0.2-0.1c0.3-0.2,0.3-0.6,0-0.7
						c-0.1,0-0.2-0.1-0.3-0.1c0,0-0.1,0-0.1,0C144.6,48.8,144.6,49,144.7,49.1z M144.1,47.5c0-0.1,0-0.3,0-0.4c0,0,0,0-0.1,0
						c-0.1,0-0.2,0.1-0.2,0.1c-0.3,0.2-0.3,0.5,0,0.7c0.1,0,0.2,0.1,0.3,0.1c0,0,0.1,0,0,0C144.1,47.8,144.1,47.6,144.1,47.5z"/>
				</g>
			</g>
			<g>
				<g>
					<path class="st6" d="M153.2,48.3c0-0.1,0-0.3,0-0.4c0,0,0,0-0.1-0.1c-0.2,0-0.4-0.1-0.5-0.2c-0.2-0.1-0.3-0.2-0.4-0.3
						c-0.2-0.4-0.1-1,0.6-1.2c0.1,0,0.2-0.1,0.2-0.1c0,0,0,0,0,0c0-0.1,0-0.2,0-0.3c0,0,0,0,0,0c0.1,0,0.2,0,0.2,0c0,0,0,0,0,0
						c0,0.1,0,0.2,0,0.3c0,0,0,0.1,0.1,0.1c0.2,0,0.4,0,0.5,0.1c0.2,0.1,0.3,0.2,0.4,0.4c0,0,0,0,0,0c-0.1,0.1-0.3,0.2-0.4,0.3
						c0,0,0,0-0.1,0c-0.1-0.1-0.2-0.2-0.4-0.3c0,0,0,0,0,0c0,0.3,0.1,0.5,0.1,0.8c0,0,0,0,0,0c0.2,0,0.4,0.1,0.5,0.1
						c0.4,0.2,0.6,0.4,0.5,0.8c0,0.4-0.3,0.7-0.7,0.8c0,0-0.1,0-0.1,0c0,0-0.1,0,0,0.1c0,0.1,0,0.2,0,0.3c0,0,0,0,0,0
						c-0.1,0-0.2,0-0.3,0c0,0,0,0,0,0c0-0.1,0-0.2,0-0.3c0,0,0,0-0.1,0c-0.3,0-0.6-0.1-0.8-0.2c-0.1-0.1-0.3-0.2-0.3-0.3
						c0,0,0,0,0-0.1c0.1-0.1,0.3-0.2,0.4-0.3c0,0,0,0,0.1,0c0.1,0.2,0.4,0.3,0.6,0.3c0,0,0,0,0,0C153.2,48.6,153.2,48.5,153.2,48.3z
						 M153.5,48.4c0,0.1,0,0.3,0,0.4c0,0,0,0,0,0c0.1,0,0.1,0,0.2-0.1c0.2-0.2,0.3-0.5,0-0.6c-0.1,0-0.1-0.1-0.2-0.1c0,0,0,0,0,0
						C153.5,48.1,153.5,48.3,153.5,48.4z M153.1,47c0-0.1,0-0.2,0-0.4c0,0,0,0,0,0c-0.1,0-0.1,0-0.2,0.1c-0.2,0.2-0.2,0.4,0,0.6
						c0.1,0,0.2,0.1,0.2,0.1c0,0,0,0,0,0C153.1,47.2,153.1,47.1,153.1,47z"/>
				</g>
			</g>
			<g>
				<g>
					<path class="st7" d="M132,46.9c0-0.2,0-0.3,0-0.5c0,0,0-0.1-0.1-0.1c-0.2,0-0.4-0.1-0.7-0.2c-0.2-0.1-0.4-0.2-0.5-0.4
						c-0.3-0.5-0.1-1.1,0.7-1.4c0.1,0,0.2-0.1,0.3-0.1c0,0,0,0,0,0c0-0.1,0-0.3,0-0.4c0,0,0,0,0.1-0.1c0.1,0,0.2,0,0.3,0
						c0,0,0.1,0,0.1,0c0,0.1,0,0.2,0,0.4c0,0.1,0,0.1,0.1,0.1c0.2,0,0.4,0.1,0.6,0.1c0.2,0.1,0.4,0.3,0.5,0.4c0,0,0,0,0,0.1
						c-0.2,0.1-0.3,0.2-0.5,0.3c0,0,0,0-0.1,0c-0.1-0.2-0.3-0.3-0.5-0.3c-0.1,0-0.1,0-0.1,0c0,0.3,0.1,0.6,0.1,0.9
						c0,0,0,0.1,0.1,0.1c0.2,0,0.4,0.1,0.6,0.2c0.5,0.2,0.7,0.5,0.7,0.9c0,0.5-0.4,0.8-0.9,1c-0.1,0-0.1,0-0.2,0c0,0-0.1,0-0.1,0.1
						c0,0.1,0,0.2,0,0.4c0,0,0,0,0,0c-0.1,0-0.2,0-0.3,0c0,0-0.1,0-0.1,0c0-0.1,0-0.2,0-0.4c0,0,0-0.1-0.1-0.1c-0.4,0-0.7-0.1-1-0.2
						c-0.2-0.1-0.3-0.2-0.4-0.4c0,0,0,0,0-0.1c0.2-0.1,0.3-0.2,0.5-0.3c0,0,0,0,0.1,0c0.2,0.3,0.4,0.4,0.8,0.4c0,0,0,0,0,0
						C132,47.3,132,47.1,132,46.9z M132.4,46.9c0,0.1,0,0.3,0,0.4c0,0,0,0,0.1,0c0.1,0,0.1-0.1,0.2-0.1c0.3-0.2,0.3-0.6,0-0.7
						c-0.1,0-0.2-0.1-0.3-0.1c0,0-0.1,0-0.1,0C132.3,46.7,132.4,46.8,132.4,46.9z M131.8,45.3c0-0.1,0-0.3,0-0.4c0,0,0,0-0.1,0
						c-0.1,0-0.2,0.1-0.2,0.1c-0.3,0.2-0.3,0.5,0,0.7c0.1,0,0.2,0.1,0.3,0.1c0,0,0.1,0,0,0C131.8,45.6,131.8,45.4,131.8,45.3z"/>
				</g>
			</g>
		</g>
	</g>
	<g>
		<path class="st9" d="M236.2,14.1h-53.8c-0.2,0-0.4-0.2-0.4-0.4c0-0.2,0.2-0.4,0.4-0.4h53.8c0.2,0,0.4,0.2,0.4,0.4
			C236.6,13.9,236.5,14.1,236.2,14.1z"/>
	</g>
	<g>
		<path class="st9" d="M365.7,59.2H216.5c-0.2,0-0.4-0.2-0.4-0.4c0-0.2,0.2-0.4,0.4-0.4h149.2c0.2,0,0.4,0.2,0.4,0.4
			C366.1,59,365.9,59.2,365.7,59.2z"/>
	</g>
	<text transform="matrix(1 0 0 1 203.009 44.2413)" class="st10 st11 st12">BASE BINGO</text>
</g>
</svg>
